Patient4_TMGait_0pt6_01_right_36_EMG.mot
version=1
nRows=30
nColumns=33
inDegrees=no
endheader
time	1LAddLong	2LGlutMax	3LGlutMed	4LIliopsoas	5LSemiMemb	6LBicFemLong	7LRecFem	8LVastMed	9LVastLat	10LGasMed	11LTibAnt	12lTibPost	13LPeroneusLong	14LSol	15LExtDigLong	16LFlexDigLong	17RAddLong	18RGlutMax	19RGlutMed	20RIliopsoas	21RSemiMemb	22RBicFemLong	23RRecFem	24RVastMed	25RVastLat	26RGasMed	27RTibAnt	28RTibPost	29RPeroneusLong	30RSol	31RExtDigLong	32RFlexDigLong
44.09	-0.012512	-0.3804	0.019073	0.009308	0.007172	-0.001068	0.10986	0.026398	-0.068054	0.030212	-0.03952	0.004425	-0.011749	-0.19882	-0.26871	-0.004425	0.013428	-0.088348	0.13977	-0.050049	0.20523	-0.14328	-0.19714	0.033875	-0.030212	-0.028839	0.016022	-0.028992	0.34805	0.3627	-0.001678	-0.010376
44.091	-0.008698	-0.35507	0.024872	-0.005341	-0.010071	0.032196	0.12222	0.0177	-0.13687	0.018158	-0.0177	0.002594	-0.04364	-0.13855	-0.11047	0.001526	0.034332	-0.11612	0.14648	-0.052185	0.10223	-0.050049	-0.2301	0.06546	-0.030212	-0.02594	-0.003357	-0.023956	0.43823	0.35965	-0.001068	-0.010681
44.092	-0.011749	-0.33829	0.016937	-0.008545	-0.043945	0.076904	0.099335	0.022888	-0.13412	0.0177	0.007782	0.008087	-0.03418	-0.074158	0.097809	0.007477	0.02594	-0.041351	0.031128	-0.02533	0.1387	-0.020905	-0.26489	0.09552	-0.016327	-0.059509	-0.00946	-0.01297	0.5249	0.35263	-0.000916	-0.007324
44.093	-0.010834	-0.33691	0.025787	-0.018921	-0.095215	0.095825	0.11307	0.028992	0.005188	0.038147	-0.038757	0.002747	0.085449	-0.045166	0.11276	-0.002136	0.019684	0.014191	-0.22278	-0.023804	0.081635	-0.18219	-0.25177	0.036926	-0.016632	-0.064392	0.01709	0.052948	0.20493	0.072021	-0.003662	-0.011292
44.094	-0.005798	-0.31006	0.032654	-0.015564	-0.062714	0.019379	0.059509	0.02121	0.14404	0.043335	-0.0914	0.007172	0.082092	-0.055389	0.15366	0.010986	0.009766	-0.016022	-0.24277	-0.02594	0.042877	-0.23956	-0.27466	0.019836	0.001526	-0.040741	0.058136	0.081482	-0.020905	0.51895	-0.002899	-0.005493
44.095	0.00946	-0.27649	0.072937	-0.001526	0.054016	-0.095978	-0.033417	-0.009308	0.20172	0.053864	-0.068512	0.011749	0.13001	-0.06485	0.19867	0.008698	0.027924	-0.073853	-0.11948	-0.031281	0.045624	-0.15762	-0.29617	0.060425	-0.018005	-0.019226	0.084991	0.023499	-0.18234	0.86029	-0.009155	-0.006561
44.096	0.015869	-0.24826	0.06897	-0.006104	0.21668	-0.080872	-0.006714	-0.016937	0.18417	0.02121	-0.10452	0.009613	0.20386	-0.039368	0.22263	0.000916	0.007172	-0.10559	0.30014	-0.10773	0.073853	-0.055542	-0.29587	0.02655	-0.014343	0.026703	0.082703	0.003662	-0.19516	0.50034	-0.00351	-0.014648
44.097	0.000458	-0.23773	0.050354	-0.003815	0.1239	-0.00824	0.10391	-0.026855	0.0737	-0.000916	-0.058289	0.008087	0.023804	0.036316	0.23102	-0.001221	-0.026093	-0.10254	0.24368	-0.070953	0.06485	-0.024872	-0.35873	0.055542	-0.009766	0.055389	0.054321	-0.018005	-0.098267	-0.071411	-0.002441	-0.012512
44.098	-0.007019	-0.22018	0.042725	0.008087	-0.00824	0.080566	0.13962	-0.027161	-0.14206	0.009155	0.014038	0.01297	-0.068817	0.051117	0.15213	0.004883	-0.033112	-0.047455	-0.27954	0.02533	-0.005646	-0.013885	-0.28549	0.036469	-0.008698	0.036163	0.075073	-0.018921	0.019989	-0.46753	-0.005493	-0.003967
44.099	-0.004883	-0.29037	0.060425	0.004883	-0.083923	0.079193	0.16892	-0.019989	-0.20538	0.036011	0.022125	-0.001831	-0.097504	-0.000153	0.043945	-0.003052	-0.034485	-0.075684	-0.23056	0.10712	0.13657	-0.036621	-0.22095	-0.013275	-0.035095	0.024567	0.084991	-0.028534	-0.12512	-0.84152	0.001373	-0.01709
44.1	-0.002136	-0.35324	0.079041	0.0177	-0.14511	0.077515	0.074005	-0.029297	-0.20309	0.067749	0.019989	0.008698	-0.047913	-0.017853	-0.015564	-0.000305	-0.046387	-0.023346	0.28839	0.16235	0.17883	0.096283	-0.19379	-0.024414	-0.057983	-0.009308	0.028534	-0.039215	-0.077972	-0.89401	-0.003052	-0.013428
44.101	0.000763	-0.40832	0.063324	0.022278	-0.13001	0.075989	0.052032	-0.027618	-0.13336	0.071411	0.001526	0.006409	-0.075989	-0.037842	-0.010376	-0.011139	-0.028229	-0.072327	0.21393	0.16571	0.099792	0.14923	-0.24094	-0.00885	-0.043335	-0.014038	0.02594	0.042419	0.080261	-0.76569	-0.001373	-0.007172
44.102	0.004272	-0.40771	0.018005	0.005035	-0.046844	0.021057	-0.00351	-0.002899	-0.05188	0.083313	0.003052	0.002136	0.008698	-0.04837	-0.005493	-0.003357	-0.037231	-0.051727	0.049133	0.065155	0.055084	0.10498	-0.28168	-0.015869	-0.01358	-0.015411	0.070953	0.034027	0.050812	-0.21912	-0.00473	-0.015869
44.103	0.010071	-0.37949	0.003204	0.006714	-0.023651	0.007324	0.014801	0.000153	0.010529	0.015564	0.010681	0.008087	-0.078583	-0.044708	0.019226	-0.006104	-0.026855	0.003815	-0.051575	-0.000916	0.06485	0.22476	-0.29755	0.015869	-0.02182	-0.020142	0.11643	0.005341	-0.085602	0.11536	0.002747	-0.012512
44.104	0.005798	-0.36636	-0.049286	-0.007477	0.035706	0.021057	0.019531	-0.003357	0.016174	0.03479	-0.001526	0.008087	-0.095673	-0.018005	0.032654	-0.005493	0.007477	-0.092468	-0.087128	-0.034485	0.11627	0.22537	-0.25452	-0.006714	-0.028381	-0.009155	0.10895	-0.006561	-0.074005	0.13458	-0.00061	-0.029907
44.105	-0.001984	-0.40359	-0.090942	0.009613	0.084839	0.033264	0.055237	-0.011597	0.030365	0.017395	0.024109	0.003052	-0.1181	0.007019	0.061035	-0.009308	0.04364	-0.042572	-0.070953	-0.077972	0.022125	0.14832	-0.26077	-0.090027	-0.033112	0.010986	0.042572	-0.01358	-0.040741	0.065918	-0.003052	-0.02121
44.106	0.001068	-0.41565	-0.11505	-0.002747	-0.031433	0.021667	0.072937	-0.0177	0.067444	0.019684	-0.006866	0.007019	0.018463	0.023041	0.080872	-0.002136	0.07019	-0.072937	-0.077209	-0.033722	-0.040283	0.010529	-0.25162	-0.056915	-0.061646	0.005035	0.004272	-0.007477	0.15366	0.14633	-0.005341	-0.018921
44.107	-0.007935	-0.45914	-0.15472	-0.001831	-0.033264	-0.070648	0.10635	-0.011597	0.045013	0.033112	0.009613	0.00824	0.080872	0.01297	0.048523	-0.009003	0.085144	-0.066833	-0.10117	-0.034943	-0.022888	-0.02655	-0.24262	-0.023651	-0.0354	-0.01709	0.010986	0.00885	0.21255	0.02121	-0.000153	-0.017853
44.108	0.006561	-0.44723	-0.12344	-0.00061	0.018463	-0.077515	0.12375	-0.008392	0.023346	0.031738	0.026245	0.005341	-0.015106	0.042572	-0.000153	0.001068	0.067749	-0.10559	-0.070496	-0.036316	-0.009918	0.014343	-0.27283	0.036621	-0.020752	-0.015106	0.028229	0.001221	0.028839	-0.029602	0.001526	-0.008392
44.109	0.016479	-0.41596	-0.10468	-0.007172	-0.029144	0.15305	0.15595	-0.00412	0.020905	0.058289	0.015564	0.002747	-0.061951	0.032043	-0.016937	0.007324	0.045929	-0.11688	-0.10468	-0.058899	-0.072937	0.13779	-0.24826	-0.025177	-0.014496	-0.024414	0.032196	-0.05722	0.093842	-0.065002	-0.001831	-0.028229
44.11	0.009155	-0.36285	-0.052948	-0.013733	-0.037231	0.21668	0.24521	-0.000916	0.037994	0.040131	0.012817	0.008698	-0.029297	0.018311	-0.016632	0.000916	0.005646	-0.21027	-0.029297	-0.035095	0.006866	0.29663	-0.26459	0.023956	0.007935	-0.056763	0.058899	-0.30441	0.26947	-0.24262	-0.005951	-0.026093
44.111	0.003967	-0.29434	0.078583	-0.016327	-0.022736	0.052185	0.29343	0.001526	0.018921	0.02655	-0.001526	0.006866	-0.001984	0.037994	-0.015106	0.006714	-0.00473	-0.12299	-0.059052	0.023804	0.15076	0.43778	-0.26977	0.045471	-0.016174	-0.059204	0.086975	0.036469	0.1384	-0.62134	0.00061	-0.031891
44.112	-0.003052	-0.16434	0.05249	-0.009003	0.016785	-0.099792	0.30823	0.002136	-0.14771	0.056	-0.000153	0.00885	-0.026855	0.07019	0.006256	0.020294	0.004425	-0.10117	-0.17166	0.067596	0.11139	0.45075	-0.23163	-0.000153	-0.045166	0.016937	0.024567	0.25009	0.060272	-0.45761	0.002594	-0.03067
44.113	-0.011749	-0.12161	0.029449	0.032501	0.052643	-0.065918	0.36163	0.004883	-0.38223	0.038605	0.003204	0.009613	-0.02533	0.056915	0.007629	0.027313	-0.012207	-0.21316	-0.24124	0.055847	0.14313	0.35095	-0.25177	-0.034485	-0.042572	0.08255	-0.030823	-0.29129	-0.090027	0.046387	-0.001678	-0.023651
44.114	-0.018921	-0.13275	0.021057	0.024261	0.03418	-0.092773	0.32105	0.026245	-0.39429	0.068207	0.00885	0.012207	-0.029755	0.052032	-0.004578	0.028992	-0.018616	-0.25864	-0.13855	-0.021973	0.12222	0.28275	-0.22842	-0.045471	-0.03418	0.039978	0.010223	0.16129	-0.31616	-0.003967	0.007019	-0.022278
44.115	-0.029602	-0.079956	-0.00412	0.010834	-0.05661	0.04776	0.33356	0.036316	-0.289	0.04303	0.013123	0.0177	0.023041	0.046692	-0.007935	0.041351	-0.009766	-0.23972	-0.12695	-0.077972	0.10696	0.20981	-0.24185	-0.059052	-0.033264	-0.058594	0.042114	0.19974	-0.72983	0.10407	-0.002899	-0.02243
44.116	-0.021973	-0.045319	-0.036469	0.002747	-0.17456	0.015411	0.26001	0.038452	-0.31982	0.057678	0.006256	0.023956	0.1004	0.029602	-0.001831	0.046234	0.009766	-0.20493	-0.2005	-0.095673	0.081482	0.2092	-0.26077	0.042114	-0.001678	-0.011292	0.005341	0.1442	-0.74356	0.4454	-0.002289	-0.032654
44.117	-0.000763	-0.025787	-0.060883	0.010071	-0.17609	-0.054321	0.11597	0.033417	-0.26871	0.098419	0.009308	0.016327	0.11261	0.03418	0.01297	0.055542	-0.022888	-0.20325	0.078583	-0.050507	-0.032654	0.28519	-0.26932	0.062256	0.002441	0.002899	0.016479	-0.40756	-0.72601	0.17639	-0.001678	-0.027161
44.118	0.019379	0.059052	-0.032196	0.007019	-0.053101	-0.12924	0.081329	0.031586	-0.23193	0.10086	0.014038	0.027924	0.011597	0.090027	0.027924	0.048676	-0.008545	-0.25192	0.19196	0.074615	0.030823	0.31036	-0.21194	0.036011	-0.027466	0.006866	0.000153	-0.33829	-0.48294	0.12421	0.007324	-0.0383
44.119	0.027771	0.075073	0.017853	0.010986	0.079498	-0.077667	0.087585	0.028992	-0.10666	0.10407	0.010071	0.029297	0.43701	0.068665	0.018768	0.058441	0.031433	-0.23468	0.040436	0.13992	0.15869	0.31036	-0.17044	-0.037842	-0.037079	-0.010529	-0.013428	0.18967	-0.052185	0.24429	0.001831	-0.032654
